<?xml version="1.0" encoding="utf-8"?>
<!-- Generator: Adobe Illustrator 18.0.0, SVG Export Plug-In . SVG Version: 6.00 Build 0)  -->
<!DOCTYPE svg PUBLIC "-//W3C//DTD SVG 1.1//EN" "http://www.w3.org/Graphics/SVG/1.1/DTD/svg11.dtd">
<svg version="1.1" id="Layer_1" xmlns="http://www.w3.org/2000/svg" xmlns:xlink="http://www.w3.org/1999/xlink" x="0px" y="0px"
	 viewBox="0 0 127.6 127.6" enable-background="new 0 0 127.6 127.6" xml:space="preserve">
<path fill="#1D1D1B" d="M17,63.8C17,37.9,37.9,17,63.8,17c25.8,0,46.8,21,46.8,46.8c0,25.8-21,46.8-46.8,46.8
	C37.9,110.6,17,89.6,17,63.8"/>
<path fill="#FFFFFF" d="M35.7,80.5v-6.4c0,0.1,5.6-4,12.4-9.4c3.6-2.8,5.5-5.4,5.5-8.8c0-2.8-1.8-5-5.1-5c-4.2,0-5.8,3-5.8,6.6
	L35.3,57c0-8,5.4-12.7,13.3-12.7c7.1,0,12.7,4.4,12.7,11.5c0,3.7-1.5,7.2-5.4,11c-2.2,2.2-5.3,4.4-9.1,7h15v6.7H35.7z"/>
<path fill="#FFFFFF" d="M65.8,64.3l2-19.5h22.7v6.5H74l-0.8,7.1c1.6-1.8,4.6-2.6,7.1-2.6c7.2,0,12,5,12,12.3
	c0,7.8-6.2,12.9-14.1,12.9c-6.4,0-12.1-3.1-13.6-9.2l6.9-2.2c0.8,2.6,2.7,4.9,6.7,4.9c4.3,0,6.6-2.9,6.6-6.3c0-3.4-2.2-6.2-6.3-6.2
	c-2.3,0-4.4,1.2-5.7,3.1L65.8,64.3z"/>
<path fill="#1D1D1B" d="M17.6,94.3c-0.6,0.4-0.8,0.9-0.4,1.6c0.4,0.6,1,0.5,1.6,0.1c0.6-0.4,0.9-0.9,0.4-1.6
	C18.8,93.8,18.2,93.9,17.6,94.3 M20.1,93.6c0.3,0.4,0.4,0.9,0.3,1.3l0.3-0.2l0.8,1.1l-4.3,3c-1.1,0.7-2.1,0.2-2.8-0.9
	c-0.4-0.6-0.8-1.5-0.9-2.1l1.2-0.4c0.1,0.4,0.3,1.1,0.7,1.6c0.3,0.5,0.8,0.8,1.3,0.4l0.5-0.4c-0.4-0.1-0.8-0.3-1.1-0.8
	c-0.7-1-0.4-2.3,0.7-3.1C18,92.4,19.3,92.4,20.1,93.6"/>
<path fill="#1D1D1B" d="M22.7,101.2c0.6-0.6,0.8-1.3,0.3-1.9c-0.5-0.6-1.2-0.5-1.9,0.1l0,0c-0.6,0.6-0.8,1.3-0.3,1.9
	C21.3,101.9,22,101.8,22.7,101.2L22.7,101.2z M23.6,102.3c-1.2,1-2.7,1-3.7-0.1c-1-1.2-0.8-2.7,0.3-3.7l0,0c1.2-1,2.7-1,3.7,0.1
	C25,99.7,24.8,101.2,23.6,102.3L23.6,102.3z"/>
<polygon fill="#1D1D1B" points="23.6,105.8 26,100.9 27.1,101.9 25.3,105.2 28.5,103.2 29.5,104.2 24.8,107 "/>
<path fill="#1D1D1B" d="M28.5,107.8c0.4,0.3,0.5,0.9,0.2,1.3c-0.3,0.4-0.9,0.5-1.3,0.1c-0.4-0.3-0.5-0.9-0.1-1.3
	C27.5,107.5,28.1,107.5,28.5,107.8"/>
<path fill="#1D1D1B" d="M33.2,113.3l-1.1-0.8l0.3-0.4c-0.4,0.1-0.9,0.1-1.4-0.3c-1-0.6-1.1-1.7-0.5-2.5l2-2.9l1.1,0.8l-1.7,2.5
	c-0.4,0.6-0.3,1,0.1,1.3c0.5,0.3,1,0.2,1.5-0.5l1.6-2.4l1.1,0.8L33.2,113.3z"/>
<polygon fill="#1D1D1B" points="37.6,112.1 40.2,111.2 41.7,112 38.9,112.9 39.3,116.6 37.9,115.9 37.6,113.3 36.8,113.6 36.1,115 
	34.9,114.3 38.2,108.1 39.4,108.7 "/>
<polygon fill="#1D1D1B" points="45.2,111.4 46.5,111.9 41.6,117.5 40.3,117 "/>
<path fill="#1D1D1B" d="M47.6,118c-0.1,0.2,0,0.5,0.4,0.6c0.2,0.1,0.5,0.1,0.7,0.1l-0.2,1.2c0,0-0.7-0.1-1.2-0.3
	c-0.9-0.3-1.3-0.8-1-1.7l0.8-2.7l-0.9-0.3l0.4-1.2l0.9,0.3l0.4-1.4l1.4,0.1l-0.5,1.8l1.3,0.4l-0.4,1.2l-1.3-0.4L47.6,118z"/>
<path fill="#1D1D1B" d="M53.7,117.1l-0.2-0.1c-0.8-0.2-1.5-0.1-1.7,1l-0.5,2.5l-1.3-0.3l1.1-5.1l1.3,0.3l-0.1,0.6
	c0.3-0.3,0.8-0.5,1.5-0.4l0.3,0.1L53.7,117.1z"/>
<path fill="#1D1D1B" d="M56.2,119.3c-0.3,0-0.6,0.2-0.6,0.5c0,0.3,0.2,0.6,0.6,0.7c0.6,0.1,1-0.3,1-0.8l0-0.4L56.2,119.3z
	 M55.8,121.5c-0.9-0.1-1.7-0.8-1.6-1.9c0.1-0.8,0.7-1.3,1.7-1.3l1.6,0l0-0.2c0.1-0.5-0.2-0.7-0.7-0.8c-0.6-0.1-1.2,0.1-1.6,0.2
	l-0.4-1.1c0.6-0.3,1.4-0.4,2.2-0.3c1,0.1,2.1,0.5,1.9,1.9l-0.3,2.2c0,0.3,0.1,0.4,0.4,0.6l-0.7,0.9c-0.5-0.1-0.8-0.4-0.9-0.7
	C56.9,121.5,56.4,121.6,55.8,121.5"/>
<path fill="#1D1D1B" d="M60.4,116.6l1.4,0l0,0.5c0.3-0.3,0.7-0.5,1.3-0.5c1.1,0,1.8,0.8,1.8,1.8l-0.1,3.5l-1.4,0l0.1-3.1
	c0-0.7-0.3-1-0.8-1c-0.6,0-1,0.4-1,1.2l-0.1,2.9l-1.4,0L60.4,116.6z"/>
<path fill="#1D1D1B" d="M67,120.2c0.4,0.3,1,0.5,1.6,0.5c0.4,0,0.7-0.2,0.7-0.5c0-0.3-0.2-0.3-0.7-0.4c-0.3-0.1-0.9-0.1-1.3-0.3
	c-0.5-0.2-1-0.6-1-1.3c-0.1-1.1,0.8-1.8,2-1.9c0.9-0.1,1.7,0.2,2.1,0.6l-0.8,1c-0.3-0.2-0.8-0.4-1.2-0.4c-0.4,0-0.7,0.2-0.7,0.5
	c0,0.2,0.3,0.3,0.7,0.4c0.7,0.1,1.1,0.2,1.5,0.4c0.4,0.2,0.8,0.6,0.8,1.2c0.1,1.1-0.8,1.8-2,1.9c-0.9,0.1-1.9-0.2-2.4-0.6L67,120.2z
	"/>
<path fill="#1D1D1B" d="M73.3,115.8l1-0.2l0.2,1.2l-1,0.2l0.7,4l-1.3,0.2l-0.7-4l-0.8,0.1l-0.2-1.2L72,116l-0.1-0.5
	c-0.2-0.9,0.4-1.4,1.3-1.6c0.5-0.1,0.9-0.1,1.1-0.1l0.1,1.2c-0.2,0-0.5,0-0.7,0.1c-0.4,0.1-0.5,0.2-0.5,0.5L73.3,115.8z"/>
<path fill="#1D1D1B" d="M79.3,117.1c-0.2-0.8-0.8-1.3-1.5-1.1c-0.7,0.2-1,0.9-0.8,1.7l0,0c0.2,0.8,0.8,1.3,1.5,1.1
	C79.2,118.6,79.5,117.9,79.3,117.1L79.3,117.1z M80.6,116.8c0.4,1.5-0.3,2.9-1.8,3.3c-1.5,0.4-2.8-0.5-3.2-2l0,0
	c-0.4-1.5,0.3-2.9,1.8-3.3C78.9,114.4,80.2,115.3,80.6,116.8L80.6,116.8z"/>
<path fill="#1D1D1B" d="M84.3,114l-0.2,0.1c-0.7,0.3-1.3,0.8-0.9,1.8l0.9,2.4l-1.3,0.5l-1.8-4.9l1.3-0.5l0.2,0.6
	c0.1-0.4,0.4-0.9,1.1-1.1l0.3-0.1L84.3,114z"/>
<path fill="#1D1D1B" d="M91.1,115.1l-1.2,0.6l-1.4-2.7c-0.3-0.7-0.8-0.7-1.2-0.5c-0.5,0.2-0.7,0.7-0.3,1.5l1.3,2.5l-1.2,0.6
	l-2.4-4.7l1.2-0.6l0.2,0.4c0.1-0.5,0.5-0.9,0.9-1.1c0.5-0.2,1-0.3,1.5,0c0.1-0.6,0.5-1.1,1.1-1.4c1-0.5,2-0.1,2.5,0.7l1.6,3.2
	l-1.2,0.6l-1.4-2.7c-0.3-0.7-0.8-0.7-1.2-0.5c-0.5,0.2-0.7,0.7-0.3,1.5L91.1,115.1z"/>
<path fill="#1D1D1B" d="M95.7,109.9c-0.2,0.2-0.3,0.5-0.1,0.8c0.2,0.3,0.6,0.4,0.9,0.1c0.5-0.4,0.5-0.9,0.2-1.3l-0.2-0.3L95.7,109.9
	z M96.8,111.8c-0.8,0.5-1.8,0.6-2.4-0.3c-0.5-0.7-0.4-1.5,0.3-2.1l1.2-1.1l-0.1-0.1c-0.3-0.4-0.6-0.4-1.1-0.1
	c-0.5,0.4-0.8,0.9-1,1.2l-1-0.5c0.3-0.6,0.8-1.3,1.4-1.7c0.8-0.6,1.9-1,2.7,0.2l1.3,1.8c0.2,0.3,0.4,0.2,0.7,0.2l0.1,1.1
	c-0.4,0.3-0.9,0.2-1.1,0.1C97.7,111,97.4,111.4,96.8,111.8"/>
<path fill="#1D1D1B" d="M100.8,106.6c0.2,0.2,0.4,0.3,0.7,0c0.2-0.1,0.4-0.4,0.5-0.5l0.9,0.8c0,0-0.4,0.5-0.9,0.9
	c-0.7,0.6-1.4,0.7-2-0.1l-1.8-2.1l-0.7,0.6l-0.8-0.9l0.7-0.6l-1-1.1l0.8-1.2l1.2,1.4l1-0.9l0.8,0.9l-1,0.9L100.8,106.6z"/>
<path fill="#1D1D1B" d="M104.9,104.9l-1,0.9l-3.7-3.8l1-0.9L104.9,104.9z M99.3,100.2c0.3-0.3,0.9-0.3,1.2,0c0.3,0.3,0.3,0.9,0,1.2
	c-0.3,0.3-0.9,0.3-1.2,0C99,101,99,100.5,99.3,100.2"/>
<path fill="#1D1D1B" d="M106.5,99.2c-0.7-0.6-1.4-0.6-1.9-0.1c-0.5,0.6-0.3,1.3,0.3,1.9l0,0c0.7,0.6,1.4,0.6,1.9,0.1
	C107.4,100.5,107.2,99.8,106.5,99.2L106.5,99.2z M107.5,98.2c1.2,1,1.4,2.6,0.4,3.7c-1,1.2-2.6,1.2-3.7,0.2l0,0
	c-1.2-1-1.4-2.6-0.4-3.7C104.7,97.2,106.3,97.2,107.5,98.2L107.5,98.2z"/>
<path fill="#1D1D1B" d="M106.1,95.6l0.8-1.1l0.4,0.3c-0.1-0.4-0.1-0.9,0.3-1.4c0.6-0.9,1.7-1,2.5-0.5l2.9,2l-0.8,1.1l-2.5-1.7
	c-0.6-0.4-1-0.3-1.3,0.1c-0.3,0.5-0.2,1,0.4,1.5l2.4,1.6l-0.8,1.1L106.1,95.6z"/>
<polygon fill="#1D1D1B" points="16,29.7 19.4,25.4 20.4,26.3 19.2,27.8 23.7,31.4 22.8,32.6 18.3,29 17,30.6 "/>
<path fill="#1D1D1B" d="M23.7,22.8l-0.8,0.8l1.4,1.4l0.8-0.8c0.6-0.6,0.6-1.2,0.2-1.6C24.9,22.2,24.3,22.3,23.7,22.8 M20.9,23.7
	l2-1.9c1.2-1.2,2.6-1.1,3.4-0.2c0.7,0.7,0.8,1.6,0.4,2.4l3.2,1l-1.2,1.2L26,25.2L25.2,26l1.8,1.8l-1,1L20.9,23.7z"/>
<path fill="#1D1D1B" d="M31,21l1.6-1.2l-2.7-2l0,0L31,21z M33.7,20.7l-2.2,1.6l0.4,1.1l-1.2,0.9l-2.4-7.1l1.5-1.1l6.1,4.3l-1.3,1
	L33.7,20.7z"/>
<polygon fill="#1D1D1B" points="35.8,14.1 38.4,19 37.1,19.7 33.8,13.3 35.6,12.4 40.3,15.3 38.1,11.1 39.4,10.4 42.7,16.7 
	41.3,17.5 "/>
<path fill="#1D1D1B" d="M44.4,13.7c0.5,0.3,1.3,0.6,2.2,0.3c0.8-0.3,1.1-0.8,0.9-1.2c-0.2-0.5-0.6-0.5-1.5-0.4
	c-0.7,0.1-1.6,0.3-2.3,0c-0.4-0.2-0.8-0.5-1-1.2c-0.3-0.9,0-2.2,1.9-2.9c1-0.3,2.1-0.3,2.9,0.2l-0.6,1.3c-0.5-0.3-1.3-0.4-1.9-0.2
	c-0.6,0.2-1,0.6-0.8,1.1c0.1,0.3,0.4,0.4,0.7,0.4c0.5,0,1.1-0.1,1.8-0.2c1-0.1,1.9,0.1,2.3,1.3c0.5,1.4-0.5,2.5-1.9,3
	c-1.3,0.4-2.5,0.2-3.2-0.2L44.4,13.7z"/>
<polygon fill="#1D1D1B" points="49.8,6.8 54.5,5.9 54.8,7.1 51.5,7.8 51.8,9.3 54.8,8.7 55.1,10 52.1,10.6 52.7,13.5 51.2,13.8 "/>
<path fill="#1D1D1B" d="M60.2,6.5c-1.3,0.1-1.8,1.1-1.8,2.5v0c0.1,1.3,0.7,2.3,2.1,2.2c1.3-0.1,1.8-1.1,1.8-2.5
	C62.2,7.5,61.5,6.4,60.2,6.5 M60.6,12.5c-2.1,0.1-3.5-1.4-3.6-3.5c-0.1-2,1-3.7,3.2-3.9c2.1-0.1,3.5,1.4,3.6,3.5
	C63.9,10.7,62.7,12.4,60.6,12.5"/>
<path fill="#1D1D1B" d="M68.8,6.7l-1.2-0.1l-0.2,1.9l1.2,0.1c0.8,0.1,1.3-0.3,1.3-0.9C70,7.2,69.6,6.8,68.8,6.7 M66.3,5.2l2.8,0.2
	c1.7,0.1,2.5,1.3,2.4,2.4c-0.1,0.9-0.7,1.6-1.6,1.9l1.3,3.1l-1.7-0.1L68.5,10l-1.1-0.1l-0.2,2.6l-1.4-0.1L66.3,5.2z"/>
<polygon fill="#1D1D1B" points="76.8,11.6 75.4,8.5 74.2,13.3 72.8,13 74.5,6 75.9,6.4 77.3,9.6 80.1,7.4 81.4,7.8 79.7,14.7 
	78.3,14.4 79.5,9.6 76.8,11.6 "/>
<path fill="#1D1D1B" d="M84,13.9l1.8,0.8l0.4-3.4l0,0L84,13.9z M85.7,16l-2.6-1.1l-0.8,0.9L81,15.2l5-5.7l1.7,0.7l-0.6,7.5l-1.5-0.6
	L85.7,16z"/>
<polygon fill="#1D1D1B" points="90.9,11.8 95.6,14.5 95,15.7 93.2,14.6 90.3,19.7 89.1,18.9 92,13.9 90.2,12.9 "/>
<rect x="95.2" y="15.5" transform="matrix(-0.812 -0.5837 0.5837 -0.812 162.6095 90.5184)" fill="#1D1D1B" width="1.4" height="7.1"/>
<path fill="#1D1D1B" d="M102.4,21.3c-1-0.9-2.1-0.5-3,0.5l0,0c-0.9,1-1.1,2.1-0.2,3c1,0.9,2.1,0.5,3-0.5
	C103,23.3,103.3,22.2,102.4,21.3 M98.3,25.7c-1.6-1.4-1.4-3.5-0.1-5c1.4-1.5,3.4-1.9,5-0.4c1.6,1.4,1.4,3.5,0,5
	C101.9,26.8,99.9,27.2,98.3,25.7"/>
<polygon fill="#1D1D1B" points="107.2,26.9 102.9,30.3 102,29.2 107.6,24.7 108.9,26.3 106.9,31.6 110.7,28.6 111.6,29.7 106,34.2 
	105,32.9 "/>
<path fill="none" stroke="#1D1D1B" stroke-miterlimit="10" d="M0.5,63.8c0-34.9,28.4-63.3,63.3-63.3c34.9,0,63.3,28.4,63.3,63.3
	s-28.4,63.3-63.3,63.3C28.9,127.1,0.5,98.7,0.5,63.8z"/>
</svg>
